<?xml version="1.0" encoding="UTF-8" standalone="no"?>
<!-- Created with Inkscape (http://www.inkscape.org/) -->

<svg
   width="210mm"
   height="297mm"
   viewBox="0 0 210 297"
   version="1.1"
   id="svg5"
   inkscape:version="1.1.1 (3bf5ae0d25, 2021-09-20)"
   sodipodi:docname="Template.svg"
   inkscape:export-filename="C:\MeinZeug\Moritz\Projects\MoritzJa.github.io\0.25mmTest.png"
   inkscape:export-xdpi="143.99699"
   inkscape:export-ydpi="143.99699"
   xmlns:inkscape="http://www.inkscape.org/namespaces/inkscape"
   xmlns:sodipodi="http://sodipodi.sourceforge.net/DTD/sodipodi-0.dtd"
   xmlns="http://www.w3.org/2000/svg"
   xmlns:svg="http://www.w3.org/2000/svg">
  <sodipodi:namedview
     id="namedview7"
     pagecolor="#ffffff"
     bordercolor="#999999"
     borderopacity="1"
     inkscape:pageshadow="0"
     inkscape:pageopacity="0"
     inkscape:pagecheckerboard="0"
     inkscape:document-units="mm"
     showgrid="false"
     inkscape:zoom="1.8116735"
     inkscape:cx="393.83476"
     inkscape:cy="575.98679"
     inkscape:window-width="2560"
     inkscape:window-height="1377"
     inkscape:window-x="-8"
     inkscape:window-y="-8"
     inkscape:window-maximized="1"
     inkscape:current-layer="g1241" />
  <defs
     id="defs2" />
  <g
     inkscape:label="Ebene 1"
     inkscape:groupmode="layer"
     id="layer1">
    <g
       id="g1241"
       transform="translate(15,58.5)">
      <path
         style="fill:#ff0000;fill-opacity:1;stroke-width:3.26929;stroke-linejoin:round;stroke-dashoffset:1.23553"
         id="path846"
         sodipodi:type="arc"
         sodipodi:cx="15"
         sodipodi:cy="15"
         sodipodi:rx="5"
         sodipodi:ry="5"
         sodipodi:start="0"
         sodipodi:end="6.2653131"
         sodipodi:open="true"
         sodipodi:arc-type="arc"
         d="m 20,15 a 5,5 0 0 1 -4.97766,4.99995 5,5 0 0 1 -5.02214,-4.95527 5,5 0 0 1 4.932781,-5.044231 5,5 0 0 1 5.06622,4.910195" />
      <path
         style="fill:#ff0000;fill-opacity:1;stroke-width:3.26929;stroke-linejoin:round;stroke-dashoffset:1.23553"
         id="path846-4"
         sodipodi:type="arc"
         sodipodi:cx="165"
         sodipodi:cy="15"
         sodipodi:rx="5"
         sodipodi:ry="5"
         sodipodi:start="0"
         sodipodi:end="6.2653131"
         sodipodi:open="true"
         sodipodi:arc-type="arc"
         d="m 170,15 a 5,5 0 0 1 -4.97766,4.99995 5,5 0 0 1 -5.02214,-4.95527 5,5 0 0 1 4.93278,-5.044231 5,5 0 0 1 5.06622,4.910195" />
      <path
         style="fill:#ff0000;fill-opacity:1;stroke-width:3.26929;stroke-linejoin:round;stroke-dashoffset:1.23553"
         id="path846-4-6"
         sodipodi:type="arc"
         sodipodi:cx="15"
         sodipodi:cy="165"
         sodipodi:rx="5"
         sodipodi:ry="5"
         sodipodi:start="0"
         sodipodi:end="6.2653131"
         sodipodi:open="true"
         sodipodi:arc-type="arc"
         d="m 20,165 a 5,5 0 0 1 -4.97766,4.99995 5,5 0 0 1 -5.02214,-4.95527 5,5 0 0 1 4.932781,-5.04423 5,5 0 0 1 5.06622,4.91019" />
      <path
         style="fill:#ff0000;fill-opacity:1;stroke-width:3.26929;stroke-linejoin:round;stroke-dashoffset:1.23553"
         id="path846-4-2"
         sodipodi:type="arc"
         sodipodi:cx="165"
         sodipodi:cy="165"
         sodipodi:rx="5"
         sodipodi:ry="5"
         sodipodi:start="0"
         sodipodi:end="6.2653131"
         sodipodi:open="true"
         sodipodi:arc-type="arc"
         d="m 170,165 a 5,5 0 0 1 -4.97766,4.99995 5,5 0 0 1 -5.02214,-4.95527 5,5 0 0 1 4.93278,-5.04423 5,5 0 0 1 5.06622,4.91019" />
      <path
         style="fill:#000000;stroke-width:3.26929;stroke-linejoin:round;stroke-dashoffset:1.23553"
         id="path848"
         sodipodi:type="arc"
         sodipodi:cx="78.098999"
         sodipodi:cy="109.3656"
         sodipodi:rx="0.125"
         sodipodi:ry="0.125"
         sodipodi:start="0"
         sodipodi:end="6.2653131"
         sodipodi:open="true"
         sodipodi:arc-type="arc"
         d="m 78.223999,109.3656 a 0.125,0.125 0 0 1 -0.124441,0.125 0.125,0.125 0 0 1 -0.125554,-0.12388 0.125,0.125 0 0 1 0.12332,-0.12611 0.125,0.125 0 0 1 0.126655,0.12276"
         inkscape:export-filename="C:\MeinZeug\Moritz\Projects\MoritzJa.github.io\1mmTest.png"
         inkscape:export-xdpi="143.99699"
         inkscape:export-ydpi="143.99699" />
    </g>
  </g>
</svg>
